<svg width="180" height="118" viewBox="0 0 180 118" fill="none" xmlns="http://www.w3.org/2000/svg">
<path d="M10.0898 0.880859C6.46875 1.49023 2.84766 3.69922 1.16016 6.31445L0.175781 7.83789V50.1133V92.3887L1.16016 93.9121C2.46094 95.918 5.16797 97.873 7.875 98.7871L10.0195 99.498L38.4258 99.5742C60.6445 99.625 66.832 99.7012 66.6914 99.9551C66.6211 100.133 65.8125 102.113 64.8984 104.398C63.9844 106.684 62.8945 108.969 62.4375 109.502C61.3477 110.721 59.0977 112.117 56.9883 112.879C55.4414 113.438 55.0195 113.463 44.9648 113.539C35.1211 113.615 34.4883 113.641 33.7852 114.123C32.7656 114.809 32.8008 116.18 33.8203 116.891C34.5938 117.398 34.7344 117.398 90 117.398C145.266 117.398 145.406 117.398 146.18 116.891C147.199 116.18 147.234 114.809 146.215 114.123C145.512 113.641 144.879 113.615 135.035 113.539L124.629 113.463L122.801 112.777C120.516 111.889 118.652 110.721 117.562 109.502C117.105 108.969 116.016 106.684 115.102 104.398C114.188 102.113 113.379 100.133 113.309 99.9551C113.168 99.7012 119.355 99.625 141.574 99.5742L169.98 99.498L172.266 98.7109C175.148 97.7207 177.328 96.1465 178.734 94.0391L179.824 92.3887V50.1133V7.83789L178.734 6.1875C177.328 4.08008 175.148 2.50586 172.266 1.51562L169.98 0.728516L90.7031 0.677734C45.3867 0.677734 10.8633 0.753906 10.0898 0.880859ZM170.895 5.29883C171.738 5.73047 172.898 6.56836 173.496 7.17773L174.551 8.26953L174.656 49.4277C174.727 81.4961 174.656 90.8652 174.305 91.7539C173.777 93.2266 171.246 95.0801 169.242 95.5117C167.309 95.918 12.8672 95.9688 10.793 95.5371C8.92969 95.1816 6.15234 93.1758 5.66016 91.8809C5.13281 90.459 5.13281 9.76758 5.66016 8.37109C6.15234 7.10156 8.57812 5.24805 10.3711 4.79102C11.5664 4.48633 23.2734 4.43555 90.5977 4.48633L169.383 4.53711L170.895 5.29883ZM109.688 104.703C111.797 109.934 112.535 111.254 114.293 112.701L115.383 113.59H90H64.6172L65.707 112.701C67.4648 111.254 68.3438 109.705 70.3125 104.703C71.332 102.113 72.2109 99.9297 72.3164 99.8027C72.3867 99.7012 80.4023 99.6504 90.1055 99.6758L107.719 99.752L109.688 104.703Z" fill="#0D6EFD"/>
<path d="M11.4258 8.85352L10.5469 9.46289V26.3223C10.5469 42.9277 10.5469 43.1816 11.25 43.7148C12.2344 44.4766 14.1328 44.4766 15.1172 43.7148C15.8203 43.1816 15.8203 42.9023 15.8203 27.5918V12.0273H90H164.18V46.3047V80.582H90H15.8203V65.0176C15.8203 49.707 15.8203 49.4277 15.1172 48.8945C14.625 48.5391 13.957 48.3359 13.1836 48.3359C12.4102 48.3359 11.7422 48.5391 11.25 48.8945C10.5469 49.4277 10.5469 49.6816 10.5469 66.2871V83.1465L11.4258 83.7559L12.2695 84.3906H90H167.73L168.574 83.7559L169.453 83.1465V46.3047V9.46289L168.574 8.85352L167.73 8.21875H90H12.2695L11.4258 8.85352Z" fill="#0D6EFD"/>
<path d="M154.758 88.7834C153.668 89.6213 153.738 90.8146 154.898 91.4748C156.41 92.3381 157.922 92.1349 158.766 90.967C160.137 89.0373 156.797 87.2092 154.758 88.7834Z" fill="#0D6EFD"/>
<path d="M165.305 88.7834C164.215 89.6213 164.285 90.8146 165.445 91.4748C166.957 92.3381 168.469 92.1349 169.312 90.967C170.683 89.0373 167.344 87.2092 165.305 88.7834Z" fill="#0D6EFD"/>
</svg>
