<svg width="180" height="130" viewBox="0 0 180 130" fill="none" xmlns="http://www.w3.org/2000/svg">
<path d="M117.231 0.403152C112.069 1.83644 107.166 6.07306 103.084 12.6282C100.183 17.3075 99.4026 19.879 100.443 21.4809C101.504 23.1039 103.605 23.9891 105.005 23.3779C105.806 23.0196 106.866 21.7338 108.187 19.4363C112.109 12.7336 115.05 9.19257 117.571 8.20191C119.632 7.37988 122.114 7.61174 124.415 8.83424C127.336 10.394 132.078 15.1154 134.099 18.4879C135.08 20.1319 146.105 41.5469 152.669 54.5729C154.049 57.292 155.85 60.8541 156.69 62.4982C158.271 65.6177 160.032 69.2641 160.032 69.4117C160.032 69.5592 159.172 69.2641 157.331 68.5053C153.789 67.051 148.807 65.7652 144.925 65.3226C142.363 65.0275 136.361 65.0275 133.959 65.3226C126.996 66.1868 120.353 68.4632 114.95 71.8567C110.448 74.6811 107.426 77.4844 103.545 82.3745L102.984 83.0911L99.9228 82.7117C97.3416 82.3956 95.8809 82.3534 90.4782 82.4588C83.4948 82.5853 80.5534 82.9014 77.752 83.7867C77.5319 83.8499 77.1117 83.4284 76.3113 82.3323C69.8682 73.3111 59.0029 67.0931 46.5768 65.2804C43.7955 64.88 36.8121 64.9432 34.0507 65.3858C31.0693 65.8706 26.2469 67.1774 23.0854 68.3578C21.6847 68.8847 20.4441 69.3274 20.3441 69.3274C20.244 69.3274 20.7042 68.1681 21.3846 66.7348C24.7662 59.6527 42.6149 24.5793 45.1361 20.1108C46.1967 18.2138 47.4573 16.5487 49.4783 14.3355C52.8199 10.668 55.5412 8.77101 58.2625 8.20191C62.6247 7.27449 66.5866 10.7102 71.6491 19.8158C73.0297 22.324 73.63 23.0617 74.6105 23.5887C76.0112 24.3475 77.652 23.9259 78.9526 22.4715C80.6935 20.5535 80.3533 18.7619 77.2718 13.8929C72.4494 6.24168 67.367 1.89967 61.8443 0.698242C59.8233 0.2556 56.4817 0.403152 54.4007 1.03548C52.7799 1.52026 50.2586 2.76385 48.8179 3.81774C46.817 5.25103 41.2542 11.3636 39.6335 13.8929C38.4329 15.811 34.3509 23.5887 25.5266 40.8724C9.53879 72.1729 1.43484 88.6978 0.774521 91.3325C-1.38653 100.017 1.01464 108.869 7.47779 116.099C12.6403 121.874 20.184 126.343 28.7682 128.746C32.3899 129.757 33.8106 129.863 41.5944 129.778C48.5178 129.694 48.7379 129.694 51.059 129.104C56.1415 127.86 62.5846 125.015 66.5466 122.317C74.1503 117.132 79.3328 109.797 80.6935 102.335C81.1937 99.6372 81.2938 95.8853 80.9136 93.6932C80.7535 92.6604 80.6534 91.733 80.7135 91.6487C80.8736 91.3536 82.1542 91.0796 84.5954 90.8056C87.3367 90.4894 97.1215 90.4473 98.4021 90.7423C99.4426 90.9742 99.3625 90.5737 99.0024 94.5996C98.6822 98.2249 98.9624 101.85 99.8228 104.675C102.904 114.813 111.749 123.244 123.714 127.481C129.457 129.525 133.799 130.158 140.723 129.968C147.266 129.799 150.247 129.272 155.47 127.375C168.336 122.696 177.341 113.338 179.562 102.314C180.582 97.2975 179.802 91.459 177.421 86.1896C176.36 83.8499 173.098 77.2526 169.337 69.8543C168.096 67.4093 165.715 62.73 164.034 59.4208C150.748 33.2844 141.803 16.0218 140.302 13.6821C138.181 10.3097 134.48 6.15737 131.518 3.81774C129.357 2.13152 126.836 0.866867 124.615 0.403152C122.134 -0.144867 119.212 -0.123795 117.231 0.403152ZM44.7159 73.4375C52.2996 74.2806 58.2625 76.3041 63.285 79.7608C69.6681 84.1239 73.3899 90.637 73.3899 97.4451C73.3699 107.415 66.1464 115.93 54.3206 119.893C51.119 120.968 49.2381 121.347 45.7965 121.6C35.6315 122.38 28.9082 121.305 21.7848 117.785C14.6613 114.244 9.87896 108.637 8.23816 101.871C7.23767 97.6558 7.81795 93.4192 10.0991 88.6135C13.9009 80.5829 23.6457 74.8287 35.7516 73.4375C38.9731 73.0581 41.2943 73.0581 44.7159 73.4375ZM143.764 73.4375C149.487 74.0699 154.189 75.3556 158.171 77.358C160.272 78.4119 163.554 80.7304 165.275 82.3745C168.036 85.0303 170.697 89.4566 171.678 93.0398C172.078 94.4731 172.138 95.1898 172.118 97.8877C172.118 100.754 172.058 101.218 171.558 102.841C169.537 109.312 165.195 114.181 158.331 117.701C154.149 119.83 149.527 121.221 145.205 121.621C141.903 121.916 133.419 121.748 131.118 121.305C123.814 119.956 117.691 116.921 113.269 112.452C110.888 110.05 109.628 108.321 108.407 105.686C106.926 102.504 106.706 101.45 106.706 97.4661C106.726 94.1991 106.746 94.0305 107.366 92.0913C108.467 88.7821 109.848 86.4003 112.289 83.6813C116.531 78.981 122.754 75.6296 130.078 74.1542C135.12 73.1424 139.102 72.9317 143.764 73.4375Z" fill="#0D6EFD"/>
</svg>
