<svg width="180" height="130" viewBox="0 0 180 130" fill="none" xmlns="http://www.w3.org/2000/svg">
<path d="M54.832 0.108761C53.5098 0.334366 50.4615 1.19918 48.8638 1.81959C42.6386 4.20723 36.8174 9.00131 33.1263 14.7918C31.1247 17.9127 29.3067 22.3871 28.5538 25.9404C28.0763 28.1588 28.0763 34.6261 28.5354 37.2206C30.537 48.3504 39.223 58.4085 49.8738 61.9242C52.8671 62.9018 56.7051 63.541 59.6432 63.541C60.9287 63.541 61.2225 63.4846 61.5347 63.165C61.7367 62.9582 61.9019 62.6762 61.9019 62.5446C61.9019 62.225 61.3694 57.5813 61.2409 56.7541L61.149 56.0773L57.8987 55.9645C54.2994 55.8517 52.7385 55.5509 49.8738 54.4229C42.4182 51.49 36.9275 44.5903 35.5319 36.4686C35.1096 34.0057 35.2748 28.5348 35.8257 25.8652C36.7806 21.2967 38.9659 17.2358 42.1979 14.0774C44.0526 12.2538 45.5768 11.1633 47.8906 9.97892C51.6367 8.06129 54.8687 7.25288 58.9638 7.25288C63.0221 7.25288 65.6114 7.89209 69.8166 9.86612C71.0103 10.4301 72.0202 10.9001 72.057 10.9001C72.0937 10.9001 72.9935 9.58412 74.0402 7.96729C76.2439 4.54564 76.3357 5.03444 73.1955 3.47402C69.3208 1.53759 66.8785 0.785572 63.2976 0.371964C61.2409 0.146362 55.6583 -0.0228424 54.832 0.108761Z" fill="#0D6EFD"/>
<path d="M117.547 0.127762C114.865 0.428566 111.156 1.48138 108.089 2.85381C106.235 3.68102 104.564 4.65864 104.435 4.99704C104.362 5.22265 107.19 10.1107 107.74 10.6935C107.942 10.9379 108.291 10.8251 110.146 9.90393C114.774 7.64789 118.924 6.83947 123.294 7.30948C133.688 8.4563 142.007 15.6944 144.082 25.339C144.78 28.6478 144.945 33.6111 144.449 36.5252C143.182 44.0077 138.683 50.2118 132.072 53.5771C128.62 55.3443 126.839 55.7767 122.339 55.9835C120.521 56.0775 118.979 56.1715 118.942 56.2279C118.905 56.2655 118.722 57.8071 118.538 59.6684C118.226 62.9396 118.226 63.0336 118.557 63.278C119.273 63.8232 124.378 63.4472 127.885 62.6012C138.242 60.1384 147.185 51.6218 150.472 41.0748C151.593 37.5216 151.795 36.0928 151.776 31.7687C151.776 27.4446 151.501 25.6962 150.307 21.9925C147.02 11.9156 138.72 3.75622 129.06 1.12418C125.608 0.184162 120.779 -0.229443 117.547 0.127762Z" fill="#0D6EFD"/>
<path d="M85.6837 8.17409C81.0377 8.9449 76.3183 10.9565 72.2783 13.8894C70.2951 15.3182 66.9345 18.6835 65.4104 20.7515C62.8027 24.286 60.0666 30.4149 59.534 33.9681C59.4238 34.7201 59.332 37.4086 59.332 39.9466C59.332 45.0979 59.4789 46.1883 60.5257 49.1964C64.6942 60.9466 73.6923 68.8239 85.4266 70.9859C92.7536 72.3208 100.393 70.4783 107.261 65.7407C109.979 63.8606 113.89 59.8374 115.671 57.0925C117.875 53.7085 119.619 49.4784 120.391 45.5867C120.813 43.4999 120.942 39.2698 120.685 36.3746C119.454 22.9887 109.024 11.3889 95.6 8.4561C93.176 7.92969 88.0709 7.77929 85.6837 8.17409ZM95.5265 15.7694C103.717 17.5742 109.997 23.4399 112.77 31.9189C113.504 34.1749 113.688 35.6037 113.688 39.5142C113.688 43.5751 113.486 45.1919 112.66 47.7488C110.548 54.2537 105.847 59.4801 99.6951 62.131C97.1976 63.2214 95.5633 63.635 92.8271 63.917C88.1444 64.4058 83.3515 63.6162 79.3666 61.7362C74.9043 59.6306 70.4971 55.0997 68.422 50.5124C66.7876 46.8839 66.3102 44.4587 66.3102 39.7586C66.3102 35.9986 66.5489 34.1185 67.2834 31.8625C70.038 23.534 75.7123 18.0819 83.9392 15.8822C86.0142 15.3182 86.8773 15.243 90.3664 15.3182C92.8822 15.3746 94.2227 15.4874 95.5265 15.7694Z" fill="#0D6EFD"/>
<path d="M33.8991 59.1422C27.3433 62.5075 23.2482 65.4967 18.4737 70.4036C10.8896 78.1493 5.47233 87.7375 2.42399 98.7921C1.61599 101.725 1.02836 104.677 0.477452 108.512L0 111.858L0.863086 113.118C2.69944 115.806 2.93816 115.938 7.82286 117.01C16.9679 118.984 26.6271 120.431 27.1413 119.886C27.3617 119.642 27.9309 115.524 27.9309 114.171C27.9309 113.738 27.8575 113.344 27.7657 113.287C27.6004 113.174 25.0111 112.704 19.7592 111.858C17.8493 111.539 14.3052 110.899 11.9179 110.429L7.54741 109.565V109.019C7.54741 108.719 7.8045 107.158 8.09832 105.56C10.963 90.6139 17.7208 79.1081 28.4084 70.9488C31.0895 68.8996 33.0544 67.6963 36.874 65.7223L40.0325 64.1243L39.298 62.1879C37.9758 58.7286 37.4065 57.5066 37.1311 57.5254C37.076 57.5442 35.6252 58.2586 33.8991 59.1422Z" fill="#0D6EFD"/>
<path d="M142.245 58.4658C141.859 59.2366 140.133 63.7487 140.133 63.9931C140.133 64.1059 141.51 64.8955 143.218 65.7415C156.329 72.2841 165.456 83.2258 170.047 97.9465C170.782 100.297 171.406 102.91 171.975 106.031C172.71 109.903 173.04 109.433 169.11 110.223C165.034 111.05 160.388 111.878 156.201 112.517C151.739 113.194 152.069 113.081 152.069 113.889C152.069 114.886 152.657 120.018 152.785 120.15C153.171 120.563 171.755 117.386 176.034 116.164C176.878 115.938 178.2 114.622 179.302 112.949L180 111.878L179.614 109.02C177.447 93.1336 171.241 80.0486 161.031 69.8212C156.403 65.1775 152.289 62.2259 146.303 59.199C143.365 57.695 142.685 57.5822 142.245 58.4658Z" fill="#0D6EFD"/>
<path d="M64.566 67.1881C58.5794 70.2338 54.7047 73.129 49.5079 78.4683C45.119 82.9804 41.9972 87.1353 39.3528 92.0234C35.3496 99.4119 32.9623 106.725 31.6034 115.806C31.1627 118.682 31.1443 119.603 31.53 120.374C31.7687 120.825 33.3112 123.175 33.7336 123.683C33.9356 123.909 42.2359 125.695 47.4879 126.616C61.7563 129.135 72.4806 129.981 90.6422 130C110.291 130 123.293 128.722 140.775 125.018C146.173 123.871 146.339 123.777 147.936 121.371L148.983 119.791L148.671 117.291C147.183 105.127 142.335 92.8882 135.541 84.146C133.227 81.1568 127.553 75.3287 124.853 73.129C123.77 72.2454 121.732 70.8354 120.354 69.9706C117.306 68.0906 111.962 65.3269 111.705 65.4961C111.485 65.6277 109.006 71.9634 109.116 72.0762C109.153 72.1138 110.328 72.6966 111.705 73.3735C117.545 76.2123 121.64 79.1639 126.084 83.7324C133.65 91.5158 138.442 101.01 140.775 112.892C141.436 116.163 141.546 117.216 141.252 117.385C140.958 117.573 135.302 118.776 131.501 119.453C103.772 124.398 70.9197 124.059 43.7234 118.532C39.4814 117.667 38.5816 117.385 38.5816 116.953C38.5816 116.219 39.3345 112.121 39.867 109.921C42.7134 98.2839 48.5713 88.2069 56.6696 81.0816C60.1771 77.9795 63.2805 75.9303 68.1101 73.5051C69.6527 72.7342 70.9014 72.0198 70.9014 71.8882C70.9014 71.6814 68.8447 66.4361 68.5141 65.7781C68.4039 65.5901 68.257 65.4209 68.1836 65.4209C68.1101 65.4209 66.4941 66.2105 64.566 67.1881Z" fill="#0D6EFD"/>
</svg>
